<?xml version="1.0" encoding="UTF-8"?>
<svg id="Objects" xmlns="http://www.w3.org/2000/svg" version="1.1" viewBox="0 0 2200 2200">
  <!-- Generator: Adobe Illustrator 30.3.0, SVG Export Plug-In . SVG Version: 2.1.3 Build 182)  -->
  <defs>
    <style>
      .st0 {
        fill: #fff;
      }
    </style>
  </defs>
  <path class="st0" d="M1282.99,1264.87c-2.39,1.18-4.63,2.61-6.61,4.4-4.77,4.3-7.86,10.51-13.46,13.67-3.86,2.18-9.37,3.58-9.9,7.99-.25,2.1.85,4.09,1.23,6.15,1.04,5.77-3.52,10.86-5.67,16.31-3.68,9.32.66,21.08,9.51,25.78,1.36.73,2.88,1.31,4.41,1.18,1.89-.15,3.52-1.33,5.04-2.47,5.98-4.48,12.28-9.38,14.72-16.45,1.26-3.63,1.37-7.55,1.56-11.39.66-13.61,2.42-27.16,5.23-40.49.74-3.5-2.85-6.26-6.06-4.68Z"/>
  <path class="st0" d="M1853.24,1316.01c-4.24-12.42-11.13-23.94-20.12-33.49-3.6-3.82-7.76-7.79-8.28-13.01-.26-2.66.47-5.33.31-7.99-.27-4.52-3.36-8.75-7.58-10.38-11.9,8.13-5.38,30.75-17.98,37.75-4.32-4.1-8.64-8.2-12.96-12.3-1.16-1.1-2.41-2.35-2.53-3.95-.11-1.51.8-2.87,1.65-4.1,3-4.26,6-8.53,9.01-12.8-1.95-4.2-8.06-3.59-12.46-2.13-11.13,3.71-21.87,8.6-31.98,14.56-2.46,1.44-5.3,3.02-8.01,2.14-1.32-.43-2.41-1.38-3.7-1.86-2.28-.83-4.79-.09-7.09.67-7.28,2.37-14.76,4.85-20.64,9.74-5.34,4.44-8.98,10.54-13.55,15.76-6.55,7.47-15.11,13.15-24.53,16.29-4.16,1.38-8.58,2.32-12.16,4.85-4.88,3.44-7.43,9.23-9.75,14.75-5.25,12.46-10.55,25.06-12.69,38.41-2.15,13.35-.88,27.72,6.26,39.2,2.41,3.86,5.72,7.51,10.12,8.67,7.16,1.9,14.1-3.26,19.73-8.08,5.52-4.73,11.05-9.46,16.57-14.2,5.49-4.7,11.06-9.45,17.62-12.47,6.56-3.01,14.36-4.11,21-1.27,12.22,5.22,16.98,21.62,29.51,26.04,1.33.47,2.79.83,3.74,1.88,1.65,1.83.95,4.65.67,7.09-1.28,11.69,11.2,21.59,22.94,20.81,11.74-.79,21.67-9.44,27.87-19.44,3.5-5.65,6.13-11.87,10.16-17.17,5.6-7.36,13.65-12.59,19.24-19.96,10.21-13.47,10.71-31.73,10.21-48.62-.15-5.14-.35-10.28-.6-15.41Z"/>
  <path class="st0" d="M1949.37,1420.95s-.02,0-.02,0c-4.19,1.45-8.39,2.91-12.58,4.36-3.92,1.36-7.91,2.75-11.27,5.2-4.68,3.4-7.75,8.55-11.8,12.68-9,9.19-22.15,12.74-33.1,19.52-1.82,1.13-3.67,2.46-4.51,4.43-.85,1.97-.2,4.72,1.82,5.44,1.23.45,2.6.03,3.85-.35,6.92-2.1,14.06-3.48,21.26-4.07,10.26-.85,21.37-.35,29.84-6.2,7.96-5.48,11.61-15.26,14.33-24.53.86-2.93,3.5-7.73,6.04-12.49,1.33-2.5-1.27-5.15-3.87-4.01Z"/>
  <path class="st0" d="M1625.21,1071.41c-4.27-3.29-10.65-2.86-14.72-6.42-5.69-4.95-3.58-14.21-.28-20.99,1.49-3.07,3.25-6.2,6.1-8.07,6.09-3.98,14.15-.77,21.42-1.27,9.38-.65,17.01-7.48,23.84-13.95,6.49-6.14,13.08-12.41,17.56-20.15,4.47-7.74,6.64-17.3,3.68-25.73-1.44-4.11-4.04-7.92-5.86-11.87-1.09-2.38-2.8-4.41-4.87-6.03-3.98-3.11-7.74-6.49-11.25-10.12-2.15-2.23-2.08-5.79.18-7.9,1.13-1.06,2.26-2.13,3.4-3.19,1.16-1.08,2.42-2.56,1.85-4.04-.46-1.18-1.86-1.64-3.1-1.94-2.67-.67-5.49-1.33-8.14-.6-1.75.48-3.29,1.54-5.03,2.03-4.39,1.24-9.32-1.72-10.93-6-1.61-4.27-.23-9.3,2.82-12.71.41-.46.88-.92,1.47-1.1,1.34-.41,2.62.65,3.7,1.53,5.85,4.76,14.41,5.93,21.32,2.91.79,5.56,8.23,6.89,12.17,10.89,1.45,1.48,2.42,3.35,3.56,5.08,2.59,3.91,6.11,7.11,9.62,10.22,2.19,1.93,5.1,3.99,7.77,2.81,3.33-1.48,2.92-6.35,1.54-9.73-2.29-5.65-5.74-10.83-10.07-15.13-1.64-1.64-3.57-3.68-2.93-5.9.55-1.91,2.73-2.79,3.97-4.35,3.79-4.77-2.64-12.89,1.28-17.55,4.23-.64,8.45-1.28,12.67-1.91,1.31-.2,2.7-.43,3.69-1.3,1.09-.93,1.5-2.4,1.82-3.78,2.49-10.67,2.77-21.54,1.85-32.45h0c-.1-.38-2.95-11.48-5.86-16.43-3.75-6.37-10.04-11.68-17.39-12.36-1.25-.11-2.55-.09-3.73.35-1.01.37-1.83,1-2.54,1.77-1.58,1.72-4.18,1.91-6.14.65-.81-.53-1.71-.95-2.6-1.29-2.62-.97-5.45-1.45-7.82-2.93-5.11-3.19-6.54-10.37-4.7-16.11,1.85-5.73,6.22-10.27,10.77-14.23,1.26-1.09,2.6-2.21,4.23-2.59,3.35-.79,6.59,1.67,10.02,1.99,4.97.45,9.22-3.58,14.12-4.49,4.81-.9,9.59,1.28,14.23,2.85,1.91.65,3.97,1.17,6,1.36,3.94.36,6.63-3.91,4.56-7.28-.77-1.26-1.4-2.6-1.65-4.15-.25-1.51,0-3.11.91-4.34,1.97-2.65,5.31-2.07,8.09-1.22,3.63,1.11,7.17,2.56,10.55,4.29,1.45.75,3.31,1.54,4.6.53,1.6-1.23,1.47-4.6,3.52-4.5.69.04,1.29.47,1.64,1.07,1.77,2.97,3.7,6.04,4.12,9.5.38,3.18-.89,6.79-3.8,8.15,3.2,8.53,5.19,17.59,9.79,25.46,4.6,7.86,12.73,14.56,21.82,14.08.84-.04,1.77-.19,2.32-.84.56-.66.54-1.62.5-2.49-.39-6.94-1.2-14.54-6.2-19.38-1.92-1.86-4.32-3.15-6.26-4.99-4.29-4.09-5.73-10.89-3.48-16.37.55,1.18,2.19,1.4,3.42.99,1.23-.42,2.28-1.27,3.52-1.7,2.15-.75,4.51-.1,6.77.22,3.8.53,7.73.08,11.31-1.31,1.6-.63,3.28-1.61,3.76-3.26.28-.99.07-2.04.18-3.05.42-3.77,4.66-5.6,8.02-7.35,3.81-1.98,7.63-6.91,3.4-10.05-.52-.39-1.11-.66-1.72-.87-4.16-1.48-8.03-3.76-11.33-6.69,2.66-.25,4.82-2.98,4.44-5.62,8.81.37,17.54,2.3,25.68,5.67,1.29.53,2.76,1.11,3.98.12.98-.78,1.19-2.19.67-3.33-1.01-2.21-3.34-2.87-5.5-3.43-9.8-2.53-19.62-5.06-29.42-7.59-24.01-6.19-48.76-12.43-73.32-10.06-13.06-.59-26.09-1.79-39.11-2.99-17.15-1.59-34.3-3.19-51.33-5.72-17.18-2.56-34.4-6.09-51.76-5.26.95.74.58,2.39-.39,3.09-.98.71-2.27.75-3.48.76-7.72.09-15.45.17-23.17.25-1.63.02-3.26.03-4.85-.29-4.39-.87-7.89-4.1-11.83-6.2-6.73-3.59-14.67-3.84-22.29-4.03-5.23-.12-10.47-.25-15.69-.37-1.66-.04-3.35-.07-5.02.04-1,.07-1.99.2-2.96.41h-.04c-14.36,1.94-28.75,3.62-43.18,5-3.79.36-5.95-4.14-3.34-6.92,2.92-3.12,6.3-5.81,9.99-7.97,2.43-1.42,1.81-5.08-.96-5.57-12.44-2.21-25-3.8-37.5-2.35-7.35.85-14.53,2.73-21.75,4.32-13.09,2.9-26.4,4.84-39.77,5.82-2.98.22-5.34,2.63-5.46,5.62-.08,1.99-.71,3.78-2.4,4.77-1.22.71-2.7.76-4.11.83-5.69.31-11.34,1.3-16.8,2.93-3.49,1.05-7.71,3.75-5.94,7.46.61,1.3,1.83,2.21,3.21,2.63l17.22,5.09c-5.5,5.32-12.42,9.16-19.85,10.99-.76-1.88-.68-4.09.23-5.92-3.83.04-6.99-3.12-8.72-6.54-1.72-3.42-2.5-7.27-4.33-10.63-1.71-3.13-4.29-5.77-7.3-7.65-1.28-.8-2.82-1.15-4.3-.86-4.92.99-4.6,7.62-2.11,11.51,2.35,3.68,5.97,7.03,5.99,11.39-12.46.86-24.61-3.47-36.33-7.73-1.37-.49-2.72-.99-4.09-1.48-.88-.32-1.87-.08-2.51.61-.41.46-.6,1.02-.6,1.56,0,.98.62,1.93,1.69,2.24,1.83.53,3.66,1.05,5.5,1.58,1.19,1.79-1.77,3.42-3.92,3.55-10.91.67-21.91.42-32.68,2.27-5.53.95-10.97,2.44-16.21,4.46.32.03.64.05.95.08l-3.25.84c.76-.32,1.52-.62,2.29-.92-1.74-.15-3.51-.25-5.17.25-1.97.6-3.77,2.35-3.68,4.39.04.7.29,1.38.25,2.08-.11,2.38-3.15,3.38-5.52,3.24-2.38-.14-5.07-.7-6.91.81-1.22.99-1.75,2.66-3.04,3.55-2.63,1.81-6.81-.61-9.23,1.47-2.17,1.87-1.57,6.37-4.36,7-1.3.29-2.54-.55-3.59-1.37-5.07-3.98-9.76-8.44-13.99-13.3-.46-.53-.95-1.14-.94-1.85.03-1,1.02-1.67,1.94-2.08,5.39-2.41,11.59-1.82,17.44-2.65,2.03-.29,4.38-1.04,4.99-3,.53-1.74-.62-3.56-1.97-4.79-4.06-3.69-9.89-4.49-15.34-5.13-6.7-.79-13.39-1.58-20.09-2.36-4.64-.54-9.31-1.09-13.97-.7-4.93.41-9.71,1.86-14.44,3.29-7.41,2.25-14.83,4.5-22.24,6.75-2.89.88-5.82,1.77-8.34,3.44-4.42,2.93-7.05,7.91-11.08,11.36-5.78,4.95-13.7,6.25-20.94,8.57-7.23,2.33-14.85,6.78-16.46,14.22-.68,3.16-.14,6.47.74,9.58.83,2.91,2.03,5.85,4.26,7.9,2.22,2.05,5.69,3.01,8.38,1.61,3.19-1.65,4.69-6.12,8.25-6.61,1.83,4.6,3.66,9.21,5.49,13.81.46,1.16.96,2.36,1.94,3.12,1.16.89,2.74.97,4.21,1.01,1.97.05,3.94.11,5.92.16,1.5.04,3.26-.04,4.12-1.28.71-1.03.46-2.44.84-3.64.74-2.39,3.54-3.29,5.64-4.67,5.35-3.48,6.21-12.14,1.67-16.62-.48-.47-1.03-.95-1.21-1.59-.34-1.26.83-2.37,1.87-3.14,7.83-5.81,15.66-11.62,23.48-17.44.45-.33.9-.67,1.44-.77,1.8-.36,3.01,2.18,2.27,3.87-.74,1.69-2.49,2.63-4.04,3.64-4.82,3.13-8.66,8.46-8.32,14.2.08,1.39.5,2.9,1.66,3.65.77.49,1.72.56,2.63.6,4.52.17,9.05-.17,13.49-1,2.47-.46,4.98-1.08,7.46-.65,2.48.42,4.94,2.22,5.16,4.73-6.43,2.88-12.86,5.76-19.29,8.63-2.2.99-4.46,2.01-6.14,3.73-2.21,2.27-2.95,8.13-2.99,12.88-.03,3.73-3.6,6.54-7.18,5.51-5.29-1.52-9.97-6.74-29.01.62-2.05.79-4.61-.53-5.97-2.25-.88-1.1-1.15-2.56-1.81-3.81-1.5-2.79-4.95-4.16-8.11-3.87-3.16.29-6.04,1.98-8.46,4.02-1.62,1.37-3.12,2.96-3.9,4.92-.68,1.73-.79,3.71-1.88,5.22-1.2,1.64-3.27,2.31-5.16,3.07-6.22,2.51-11.62,7.02-15.2,12.69-1.79,2.82-3.14,5.93-5.36,8.43-4.17,4.72-11.29,6.55-17.22,4.44-.85,2.9.84,6.31,3.67,7.4-3.76.25-7.55,0-11.24-.74-2.3-.46-4.66-1.11-6.94-.6-2.28.51-4.41,2.69-3.88,4.97.41,1.78,2.17,2.84,3.77,3.72,2.42,1.31,4.82,2.63,7.24,3.95,3.83,2.08,8,4.58,9.21,8.77,1.45,5.05-2.38,10.43-7.24,12.44-4.87,2-10.37,1.43-15.55.52-5.17-.92-10.43-2.14-15.62-1.34-1.65.26-3.33.75-4.54,1.88-3.38,3.13-1.48,8.61-1.06,13.21.42,4.61-1.05,9.37-4,12.95,1.32,1.42,2.63,2.84,3.96,4.27-1.28,2.27-2,4.88.45,6.84.5.4,1.09.69,1.69.9,10.28,3.64,22.01,2.86,31.74-2.05,1.88-.95,3.7-2.06,5.17-3.56,1.56-1.59,2.65-3.58,3.9-5.44,1.89-2.82,4.14-5.37,6.39-7.91,4.98-5.63,9.96-11.27,14.95-16.89,3.94,3.52,10.29,2.14,14.67-.81,4.38-2.95,7.85-7.2,12.55-9.61,1.03-.53,2.15-.96,3.31-.89,4.23.28,4.93,6.05,6.7,9.89,2.8,6.02,9.98,8.28,15.81,11.46,5.83,3.19,11.3,10.3,7.78,15.94-1.02,1.63-2.65,2.8-3.7,4.42-1.04,1.62-1.25,4.12.34,5.2,6.49-1.75,12.22-6.2,15.51-12.05.79-1.41,1.46-3.02,1.15-4.6-.29-1.4-1.3-2.53-2.26-3.58-8.41-9.14-16.81-18.27-25.22-27.41.92-3.69,6.2-4.48,9.5-2.58,3.29,1.91,5.28,5.39,7.81,8.24,6.57,7.4,16.7,10.33,25.01,15.69.72.46,1.49,1.05,1.56,1.89.07.8-.52,1.48-.94,2.16-2.42,3.84-.14,8.84,2.39,12.6,1.86,2.79,4.07,5.63,7.24,6.7,3.18,1.08,7.44-.57,7.89-3.89.32-2.38-1.33-4.61-1.36-7.01-.06-4.67,5.63-7.14,10.29-7.25s9.86.74,13.57-2.09c3.46-2.62,4.26-7.47,4.16-11.81-.11-4.33-.82-8.81.6-12.91,2.79-7.97,14.51-10.93,20.75-5.26,1.21,1.1,2.23,2.44,3.68,3.2,4.29,2.27,9.17-1.67,12.19-5.46,3.03-3.79,6.97-8.26,11.71-7.21-2,6.11-3.25,13.41.7,18.48,2.29,2.93,5.86,4.47,8.98,6.5,3.12,2.03,6.07,5.17,5.81,8.88-6.7,4.44-15.42,4.13-23.35,2.84-7.93-1.3-15.97-3.4-23.89-2.02-13.17,2.31-23.53,15.42-22.72,28.77.05.8.14,1.62.57,2.29.54.88,1.54,1.35,2.49,1.71,7.23,2.73,15.25,1.93,22.92,1.1,1.26-.14,2.52-.27,3.78-.41,6.37-.69,13.74-1.05,18.2,3.57,3.91,4.06,3.96,10.49,2.81,16.01-1.25,6-4.24,12.39-10,14.44-5.02,1.79-10.5-.23-15.82-.33-4.61-.1-10.1,2.74-10.68,6.88-1.38-.39-2.77-.76-4.15-1.13-13.7-3.64-27.39-7.28-41.09-10.92-3.3-.88-6.89-1.74-10.05-.43-2.85,1.19-4.74,3.93-7.35,5.58-4.43,2.81-10.21,2.13-15.24.63-8.57-2.54-16.74-7.38-21.65-14.85-2.1-3.2-3.49-6.93-4.01-10.74-.7-5.18-4.67-9.29-9.82-10.19-13.98-2.43-25.7-1.49-34.73-1.09-7.2.32-14.44.63-21.52,2.05-22.43,4.5-42.77,21.73-47.42,44.13-.72,3.47-1.09,7.06-2.66,10.22-1.9,3.84-5.34,6.65-8.66,9.37-8.39,6.9-16.74,14.26-22.05,23.73-10.19,18.15-9.51,40.92-4.21,61.04,7.41,28.17,12.1,48.34,38.18,54.65,22.08,5.34,64.95-1.28,81.34-.55,2.09.09,4.23.22,6.18.98,2.72,1.06,4.83,3.24,6.85,5.35.13.13.25.26.38.39,8.78,9.22,13,21.7,12.38,34.42-.32,6.53,1.76,12.21,3.86,20.16,2.09,7.94,5.83,15.34,8.6,23.07,11.86,33.08,5.67,70.52,17.4,103.65,4.85,13.7,12.67,26.36,15.91,40.52,2.55,11.17,3.37,24.88,13.44,30.35,7.62,4.13,17.01,1.29,25.05-1.94,6.84-2.74,13.68-5.76,19.45-10.36,13.9-11.07,19.59-29.52,31.42-42.79,5.59-6.28,12.79-11.76,15.19-19.83,1.3-4.38,1.01-9.06,1.6-13.59,3.2-24.22,30.72-40.69,31.35-65.12.28-11.18-5.33-21.84-5.27-33.01.07-13.78,8.59-25.87,16.47-37.17,16.01-22.93,30.81-46.72,44.33-71.2-6.25-3.93-14.01.95-20.69,4.08-6.36,2.98-13.45,4.27-20.47,3.93-4.98-10.37-14.37-18.66-21.3-28.18-5.74-7.9-9.86-16.83-13.93-25.7-7.46-16.23-14.91-32.45-22.36-48.67-3.97-8.65-8.3-17.69-15.56-23.64,1.39-1.02,3.01-1.72,4.71-1.98,3.91-.58,8.08,1.21,10.35,4.44,1.86,2.64,2.42,5.95,3.33,9.06,4.97,17.14,20.61,28.95,28.75,44.83,1.65,3.24,3.02,6.66,5.2,9.58,3.53,4.73,8.99,7.82,12.2,12.76,4.63,7.12,3.75,16.65,7.84,24.08.95,1.73,2.28,3.41,4.12,4.11,1.65.62,3.47.41,5.2.12,19.12-3.24,35.7-14.64,51.59-25.76,6.99-4.89,14.22-10.03,18.43-17.45,2.07-3.65,3.32-7.73,3.96-11.88.52-3.31.65-6.74-.28-9.96-2.28-7.86-10.09-12.57-17.27-16.51-3.88-2.13-9.24-4.05-12.22-.79-1.45,1.59-1.99,4.2-4.02,4.91-1.14.4-2.39.04-3.53-.34-7.26-2.42-14.34-5.83-19.81-11.17-5.47-5.34-9.16-12.84-8.66-20.47,7.42,1.49,15.06,3.06,21.34,7.3,6.2,4.18,11.38,11.05,18.85,11.44,3.05.17,6.15-.82,9.11-.11,1.94.46,3.63,1.62,5.32,2.68,10.41,6.51,22.66,10.02,34.93,10.01,7.65,0,15.83-1.24,22.54,2.43,6.46,3.53,10.53,11.15,17.69,12.83,4.43,1.04,10.02-.11,12.79,3.51.92,1.2,1.29,2.71,1.64,4.18l3.01,12.57c.47,1.95,1.02,3.88,1.66,5.77,8.32,24.18,18.99,44.95,29.7,68.38.16.33.33.69.66.87.82.44,1.65-.59,2.02-1.44,4.63-10.41,9.36-21.3,8.8-32.67-.19-3.99-1.03-8.11.18-11.92,1.75-5.5,7.18-8.77,11.79-12.24,8.83-6.64,15.89-15.62,20.25-25.77.94-2.17,1.88-4.55,3.91-5.74,1.64-.95,3.68-.95,5.5-1.15,3.09-.26,6.19-.53,9.29-.79,1.7-.12,3.54-.39,5.16.25,1.35.53,2.39,1.6,3.38,2.65,7.97,8.37,15.94,16.74,23.91,25.1,2.54,2.66,5.21,6.41,4.59,9.69-.23,1.21.59,2.33,1.8,2.42,4.09.28,8.33-1.67,10.6-5.1.24,1.31.48,2.62.74,3.93-.83,9.68-1,19.41-.5,29.1.18,3.48.46,7.03,1.75,10.28,4.23,10.64,17.86,15.06,22.33,25.6,2.73,6.44,1.43,13.66.64,20.79-5.61-4.64-12.35-9.9-20.6-15.31-1.76-1.1-3.64-2.17-5.71-2.33-2.07-.17-4.39.85-5.08,2.81-.88,2.49,1.1,5.02,2.98,6.89,5.86,5.84,12.23,11.2,17.55,17.54,9.12,10.86,14.81,24.11,22.01,36.32,2.61,4.43,6.75,9.32,11.77,8.25,4.43-.95,6.53-6.09,6.89-10.61.41-5.14-.48-10.37-2.58-15.08-2.83-6.32-7.62-11.42-12.81-16.1-.41-13.34-2-33.54-7.33-41.51-2.65-3.96-6.2-7.22-9.08-11-6.57-8.64-9.36-20.05-7.52-30.75l29.4,27.91c2.09,1.99,4.79,3.28,7.66,3.48,6.18.42,8.06-3.96,9.65-7.96,1.51-3.83,3.02-7.65,4.53-11.48,3.23-8.15,5.79-19.03-1.16-24.38Z"/>
  <path class="st0" d="M1849.23,1220.24l.13.02c4.92.8,6.44-6.43,1.61-7.66-.56-.14-1.14-.24-1.71-.33-3.48-.48-7.83-.35-9.51-3.45-.68-1.26-.71-2.83-1.49-4.04-.76-1.16-2.1-1.79-3.37-2.37-7.55-3.44-15.1-6.88-22.65-10.32-6.76-3.07-15.13-6.02-21.11-1.63-1.42,1.04-2.62,2.47-4.27,3.06-1.58.56-3.34.28-4.95-.21-4.54-1.37-8.59-4.32-11.29-8.22-.59-.85-1.14-1.76-1.99-2.35-1.97-1.36-5.16.02-5.52,2.38-.7,4.54,6.82,6.5,7.28,11.08.11,1.09-.22,2.21-.03,3.3.56,3.21,4.76,3.91,8,4.32,8.63,1.12,16.76,5.68,22.22,12.46,1.03,1.28,2.01,2.79,1.86,4.43-.11,1.11-.74,2.1-1.03,3.19-.54,1.98.09,4.14,1.27,5.81,2.97,4.2,8.8,5.38,13.9,4.74,5.1-.65,9.92-2.73,14.97-3.7,1.76-.34,3.61-.57,5.37-1,2.66-.65,5.43.59,6.73,3,.81,1.5,1.63,2.99,2.58,4.38,2.85,4.14,8.25,7.55,12.73,5.26-.68-7.16-9.66-12.02-12.6-18.38-.91-1.96.74-4.15,2.91-3.8Z"/>
  <path class="st0" d="M1641.84,1195.81c.95.91,2.28,1.29,3.55,1.63,5.45,1.46,10.96,2.77,16.49,3.91,2.98.62,6.5,1.05,8.72-1.02,1.75-1.64,2.06-4.25,2.32-6.62.97-8.87,3.31-18.39,8.57-25.27,3.93-5.13,5.52-11.79,3.7-17.99-.11-.36-.22-.72-.35-1.08-.39-1.1-.88-2.27-.62-3.41.36-1.71,2.14-2.66,3.34-3.94,3.42-3.69.53-10.91-4.49-11.2-3.41-.2-6.42,2.21-8.64,4.8-2.22,2.6-4.13,5.59-7.05,7.37-6.19,3.77-16.05,1.65-19.53,8-1.11,2.02-1.26,4.59-2.88,6.22-2.73,2.77-8.04,1.35-10.61,4.26-1.92,2.16-1.26,5.5-.5,8.28,2.03,7.39,4.07,14.78,6.1,22.17.39,1.4.81,2.88,1.86,3.88Z"/>
  <path class="st0" d="M963.03,830c-1.44,1.04-2.27,2.62-2.2,4.19.02.56.19,1.18.74,1.52.34.21.78.27,1.2.33,1.75.22,3.53.26,5.3.13.6-.04,1.23-.12,1.73-.39.57-.3.92-.81,1.24-1.3,3-4.59,5.32-9.49,6.92-14.54.56-1.78-.69-3.68-2.87-4.08-.01,0-.03,0-.04,0-.5-.09-1.02-.12-1.51,0-.57.14-1.04.47-1.47.8-1.03.81-1.95,1.72-2.72,2.71-.34.44-.67.91-1.14,1.27-.51.38-1.16.61-1.77.88-1.51.65-2.85,1.55-3.95,2.63-.15.15-.31.32-.33.51-.03.3.23.56.47.78,1.16,1.05,2.37,2.58,1.41,3.76-.26.32-.66.54-1,.8Z"/>
  <path class="st0" d="M983.75,809.76c1.44,3.44.33,7.91,2.88,10.63,1.72,1.83,4.54,2.17,6.4,3.84.8.72,1.39,1.92.84,2.84-.46.76-1.47.94-2.35,1.11-1.16.24-2.34.65-3.18,1.49-.84.83-1.26,2.19-.74,3.26.25.51.72,1.05.5,1.58-.35.86-2.15.86-1.87,1.73.11.34.52.47.87.55.91.21,1.82.42,2.73.63.87.2,1.23,1.25.66,1.94-2.27,2.72-5.73,4.46-8.14,7.09-.62.68-.2,1.8.72,1.87,5.04.4,10.04-2.66,15.08-4.08,2.86-.81,5.85-1.09,8.71-1.85,2.87-.77,5.73-2.13,7.45-4.55,1.72-2.42,1.93-6.07-.15-8.19-1.65-1.68-4.37-2.14-5.71-4.08-1.08-1.56-.97-3.68-1.9-5.31-1.63-2.86-5.88-3.52-7.24-6.52-.48-1.07-.51-2.29-.52-3.47v-.12c-.02-.9.3-1.75.84-2.47,1.03-1.37,1.87-3.33,1.6-4.64-.37-1.75-1.77-3.23-3.49-3.69-.42-.11-.88-.18-1.19-.48-.77-.7-.17-1.97-.33-2.98-.3-1.8-2.69-2.19-4.51-2.14-2.07.05-4.16.11-6.14.68-1.98.58-3.88,1.74-4.89,3.54-1.19,2.12-.98,4.82.13,6.99.87,1.68,2.22,3.08,2.95,4.83Z"/>
  <path class="st0" d="M783.76,1207.73c-9.73-9.81-22.86-16.18-36.59-17.76-5.42-.62-11.17-.6-15.87-3.35-2.76-1.61-4.92-4.06-6.87-6.59-10.6-13.77-17.29-31.91-32.82-39.7-5.72-2.87-12.2-4.04-17.75-7.2-10.22-5.8-16.07-17.59-26.5-23.02-5.76-3-12.37-3.77-18.82-4.5-4.77-.53-9.63-1.06-14.44-1.2-3.32-5.44-9.86-8.37-16.25-8.74-6.58-.39-13.08,1.56-19.27,3.83-7.81,2.86-15.89,6.69-20.21,13.8-1.42,2.33-2.33,4.85-2.96,7.47-1.98-.84-4.05-1.53-6.05-2.27-12.46-4.59-24.68-12.52-29.68-24.82-3.12-7.68-3.71-17.26-10.5-22.01-5.66-3.96-15.9-6.01-14.23-12.73.39-1.61,1.53-2.91,2.63-4.16,3.92-4.43,7.84-8.86,11.76-13.3-5.28-7.46-16.9-3.99-24.93.38-8.03,4.37-19.23,8.45-25.17,1.5-2.2-2.56-2.92-6.05-3.58-9.37-1.51-7.68-2.96-15.97.33-23.06,2.09-4.53,5.89-8.01,9.76-11.15,17.74-14.41,44.19-23.98,62.82-10.74,6.78,4.82,15.19,12.57,21.82,7.54,5.54-4.2,3-13.02,5.17-19.62,2.94-8.95,13.71-12.2,20.61-18.62,4.02-3.73,6.74-8.61,9.68-13.23,20.26-31.89,54.32-54.68,91.53-61.25-7.55-7.1-15.62-18.22-9.58-26.64,5.02-6.99,15.49-5.65,24.01-4.49,15.24,2.06,35.17-2.5,37.56-17.7,1.39-8.8-4.1-17.07-9.45-24.18-12.53-16.62-30-34.33-50.52-30.92-19.96,3.32-30.73,24.46-40.28,42.3-2.12,3.94-4.45,7.99-8.16,10.49-3.71,2.5-9.21,2.94-12.39-.2-4.28-4.21-2.1-11.48-3.88-17.22-4.35-14.1-29.87-14.12-31.21-28.81,13.73-9.39,50.53-20,76.04-26.86l.07-.03c5.16-2.54,6.79-9.15,3.36-13.76-3.94-5.31-10.74-8.99-17.46-10.08-.39-.06-.78-.11-1.17-.16.45-1.32.77-2.69.94-4.08.33-2.7.11-5.47.8-8.11.87-3.41,3.13-6.25,5.34-8.99,2.59-3.21,5.35-6.56,9.16-8.15,2.79-1.17,5.93-1.3,8.79-2.3,2.81-.99,5.27-2.81,7.35-4.93,1.46-1.49,2.79-3.19,3.26-5.22.57-2.41-.16-4.98-1.51-7.06,0-.01-.02-.03-.03-.04-1.51-2.32-4.21-3.57-6.97-3.44-8.35.39-20.38,1.22-23.75,1.54-9.14.87-19.31,3.69-23.57,11.83-3.2,6.11-2.12,13.48-.95,20.28.87,5.05,1.76,10.17,3.95,14.81.64,1.36,1.42,2.68,2.32,3.91-5.19.48-10.4,1.2-15.59,1.38-5.48.19-10.91-.23-16.32-1.01,1.66-1.76,1.57-4.67,3.04-6.63.9-1.2,2.28-1.9,3.46-2.84,4.61-3.7,5.17-10.16,4.83-16.25-.11-2.03-1.61-3.74-3.62-4.07-5.15-.85-10.73.82-14.42,4.54-3.8,2.14-8.71,2.15-12.52.04-2.3-1.27-5.2-3.8-8.2-6-1.78-1.31-3.95-1.99-6.16-1.98-14.69.04-29.5,1.4-41.93,8.85-1.8,1.09-3.79,2.99-2.99,4.95.49,1.21,1.86,1.79,3.1,2.15,10.8,3.22,22.34.53,33.54-.66,1.26-.14,2.61-.24,3.75.32,1.65.81,2.39,2.7,3.17,4.38,1.04,2.25,2.42,4.3,4.05,6.14-.18-.05-.36-.09-.54-.14-10.42-2.71-20.98-5.2-31.73-5.63-8.84-.35-17.67.69-26.49,1.37-54.66,4.18-109.7-5.91-164.3-1.04-4.81.43-9.95,1.11-13.58,4.3-3.33,2.93-4.74,7.41-6.65,11.41-4.65,9.78-13.07,17.72-23.11,21.77-10.29,4.16-22.01,4.34-31.78,9.6-9.77,5.26-16.39,19.42-8.62,27.35,4.74,4.84,12.68,4.9,19.02,2.53,6.34-2.37,11.73-6.7,17.68-9.91,23.36-12.59,51.93-6.73,77.74-.57,3.4.81,7.04,1.78,9.23,4.49,1.67,2.07,2.2,4.82,2.64,7.45,2.11,12.59,3.51,25.66.13,37.97-8.41,30.63-44.74,51.87-41.96,83.51.88,10.04,5.82,19.22,10.65,28.06,8.66,15.84,17.32,31.69,25.98,47.53,1.95,3.58,4.04,7.31,7.45,9.55.03.02.07.04.1.07,10.82,6.95,19.93,16.26,25.87,27.67,3.43,6.57,6.85,13.15,10.28,19.72,1.44,2.77,2.99,5.66,5.63,7.34,3.61,2.28,8.24,1.72,12.46,2.31,15.31,2.14,26.15,19.76,41.58,18.76,6.03-.39,13.16-3.4,17.39.93,2.2,2.24,2.54,5.63,3.39,8.65,3.48,12.35,16.07,19.42,27.53,25.17,10.35,5.2,20.69,10.39,31.04,15.59-.18,1.96-.4,3.9-.74,5.81-3.16,17.97-16.74,33.38-17.27,51.61-.32,10.99,4.18,21.46,8.6,31.52,5.88,13.39,12.11,27.27,23.18,36.83,6.26,5.41,13.95,9.33,18.88,15.97,5.23,7.06,6.69,16.39,11.63,23.6,3.43,59.3,7.69,118.71,20.26,176.73,1.55,7.17,3.31,14.49,7.37,20.6,3.58,5.38,8.73,9.49,13.79,13.51,11.62,9.21,23.24,18.43,34.86,27.64,3.21-7.94-3.51-16.13-5.44-24.47-3.79-16.46,11.49-33.87,5.17-49.53-3.82-9.45-14.83-15.62-15.68-25.79-.87-10.49,9.35-17.99,17.66-24.43,20.68-16.04,36.09-38.78,43.32-63.92,3.65,1.35,7.3,2.7,10.94,4.04,1.3.48,2.7.96,4.03.6,2.5-.67,3.31-3.76,3.69-6.32,1-6.77,2-13.55,2.99-20.32.31-2.12.67-4.34,2-6.01,1.61-2,4.26-2.75,6.64-3.72,9.65-3.95,16.46-12.91,20.66-22.46,4.21-9.55,6.24-19.88,9.3-29.85,4.07-13.46,6.68-10.85,10.76-24.32,1.86-6.14,3.74-12.57,2.56-18.87-1.1-5.94-4.81-11.1-9.08-15.4Z"/>
  <path class="st0" d="M918.61,733.8c.54-1.46.38-3.07.52-4.63,1.01-10.67,14.98-14.34,21.24-23.05,3.61-5.02,4.41-11.43,6.28-17.31,2.5-7.83,7.15-14.92,13.2-20.48-8.19-.58-16.87.77-25.17.26-11.57-.69-22.63-5.06-34.13-6.5-9.29-1.16-18.69-.39-28.02.38-16.92,1.4-33.83,2.79-50.75,4.18-4.95.41-9.91.82-14.86,1.32-10.74-2.15-21.96-1.82-32.97-1.42-30.88,1.11-62.23,2.5-91.44,12.73-2.05.72-3.5,2.66-3.43,4.83.18,4.89,7.34,4.33,9.69,8.05-3.31,1.84-6.65,3.63-10.01,5.39-1.24.65-1.91,1.75-2.08,2.91-3.17.17-6.32.7-9.36,1.63l-.09.03c-4.85,1.49-9.76,3.69-12.81,7.74-.9,1.2-1.65,2.75-1.16,4.17.3.91,1.06,1.59,1.82,2.17,8.57,6.45,20.5,4.47,31.17,5.58,2.49.26,5,.72,7.25,1.81,4.2,2.03,7.22,6.31,7.71,10.95.1.99.09,2.03-.28,2.95-.65,1.62-2.25,2.61-3.57,3.76-5.18,4.57-5.74,13.42-1.2,18.62,3.99,4.56,10.47,5.83,16.46,6.78,5.46.87,11.08,1.69,16.46.46.99-.22,1.99-.54,2.71-1.26.82-.82,1.12-2.03,1.26-3.18.41-3.48-.32-7.09-2.06-10.15-.46-.8-1-1.62-1.03-2.55-.06-1.54,1.33-2.78,2.8-3.27,1.46-.49,3.04-.45,4.55-.76,6.1-1.26,9.66-9.24,6.54-14.63-1.21-2.09-3.17-3.7-4.2-5.88-.99-2.13-1-4.57-1.68-6.81-1.35-4.49-5.27-7.77-9.46-9.89-6.65-3.36-14.2-4.38-21.6-5.32.11-.05.21-.1.32-.15,4.03-2.13,7.24-5.53,11.06-8.04,5.42-3.56,14.62-9.32,20.95-10.72,5.26-1.17,13.22-2.75,21.01-4.2-5.62,3.68-4.07,12.36,2.53,13.71,6.65,1.36,13.39,2.27,20.17,2.72,3.61.24,7.69.57,9.96,3.39,4.17,5.18-1.58,13.04.38,19.4.95,3.12,3.42,5.11,6.44,6.44,3.58,1.58,4.93,6.03,2.71,9.25-7.52,10.86-10,25.22-6.06,37.87,1.72,5.5,5.46,11.28,11.2,11.76,8.55.72,12.81-9.86,19.17-15.6,5.49-4.96,13.18-6.43,20.39-8.08,22.39-5.11,43.79-13.77,65.08-22.38,2.57-1.04,5.42-2.35,6.38-4.95Z"/>
</svg>